<?xml version="1.0" encoding="UTF-8" standalone="no"?>
<!-- Created with Inkscape (http://www.inkscape.org/) -->

<svg
   width="200mm"
   height="200mm"
   viewBox="0 0 200 200"
   version="1.1"
   id="svg1"
   sodipodi:docname="Logo Bpp Colored.svg"
   inkscape:version="1.3.2 (091e20e, 2023-11-25, custom)"
   inkscape:export-filename="Logo Bpp Colored.png"
   inkscape:export-xdpi="96"
   inkscape:export-ydpi="96"
   xmlns:inkscape="http://www.inkscape.org/namespaces/inkscape"
   xmlns:sodipodi="http://sodipodi.sourceforge.net/DTD/sodipodi-0.dtd"
   xmlns="http://www.w3.org/2000/svg"
   xmlns:svg="http://www.w3.org/2000/svg">
  <sodipodi:namedview
     id="namedview1"
     pagecolor="#ffffff"
     bordercolor="#000000"
     borderopacity="0.25"
     inkscape:showpageshadow="2"
     inkscape:pageopacity="0.0"
     inkscape:pagecheckerboard="0"
     inkscape:deskcolor="#d1d1d1"
     inkscape:document-units="mm"
     showgrid="false"
     inkscape:zoom="0.73156754"
     inkscape:cx="257.66589"
     inkscape:cy="367.02011"
     inkscape:window-width="1920"
     inkscape:window-height="1009"
     inkscape:window-x="-8"
     inkscape:window-y="-8"
     inkscape:window-maximized="1"
     inkscape:current-layer="layer1">
    <inkscape:grid
       id="grid22"
       units="mm"
       originx="0"
       originy="0"
       spacingx="0.99999999"
       spacingy="0.99999999"
       empcolor="#0099e5"
       empopacity="0.30196078"
       color="#0099e5"
       opacity="0.14901961"
       empspacing="5"
       dotted="false"
       gridanglex="30"
       gridanglez="30"
       visible="false" />
  </sodipodi:namedview>
  <defs
     id="defs1" />
  <g
     inkscape:label="Capa 1"
     inkscape:groupmode="layer"
     id="layer1">
    <path
       style="fill:#61466b;stroke:#61466b;stroke-width:2;stroke-linecap:round;stroke-linejoin:round;stroke-dasharray:none;stroke-opacity:1;paint-order:markers fill stroke;fill-opacity:1"
       d="M 174.44658,60.136118 186.6442,53.09382 99.535645,0.77762223 14.774822,52.619102 14.515615,151.89554 100.05406,199.07129 185.85171,151.63633 174.44658,145.15615 100.05406,186.37013 25.920741,144.89694 25.661533,59.876911 99.535645,15.03403 Z"
       id="path26" />
    <path
       style="fill:#4f1b6e;fill-opacity:1;stroke:#4f1b6e;stroke-width:2;stroke-linecap:round;stroke-linejoin:round;stroke-dasharray:none;stroke-opacity:1;paint-order:markers fill stroke"
       d="M 64.283436,54.951971 75.818166,66.4867 H 59.617704 v 29.160833 l -9.590674,9.590677 9.590674,9.59067 v 23.84708 h 15.293237 l -11.53473,11.53473 H 49.508616 l -4.860139,-4.86014 v -27.9296 L 32.692535,105.46501 44.972485,93.185063 V 59.876911 l 4.989743,-4.989742 z"
       id="path28" />
    <path
       style="fill:#4f1b6e;fill-opacity:1;stroke:#4f1b6e;stroke-width:2;stroke-linecap:round;stroke-linejoin:round;stroke-dasharray:none;stroke-opacity:1;paint-order:markers fill stroke"
       d="m 129.91777,55.211178 10.10909,10.109088 h 4.66573 v 30.327267 l 10.10909,10.109087 -10.23869,10.23869 v 24.2359 h -5.05454 l -9.97949,9.97948 h 25.27272 l 5.11935,-5.11934 v -27.6704 L 172.13618,105.20581 159.72662,92.796253 V 59.876911 l -4.66573,-4.665733 z"
       id="path29"
       sodipodi:nodetypes="ccccccccccccccccc" />
    <path
       style="fill:#9b5faf;fill-opacity:1;stroke:#9b5faf;stroke-width:2;stroke-linecap:round;stroke-linejoin:round;stroke-dasharray:none;stroke-opacity:1;paint-order:markers fill stroke"
       d="m 71.98988,55.111258 11.95569,11.95569 h 32.5425 l 7.60814,13.177694 -9.28663,16.084915 H 83.753768 l -8.80057,8.800573 8.35303,8.35303 h 31.519552 l 7.56134,13.09663 -6.98853,12.10448 H 83.114427 l -12.365741,12.36574 h 49.447564 l 14.85147,-14.85148 v -21.11702 l -9.9831,-9.9831 10.22009,-10.220095 V 69.688249 L 120.64378,55.175192 Z"
       id="path30"
       sodipodi:nodetypes="ccccccccccccccccccccc" />
  </g>
</svg>
